<svg xmlns="http://www.w3.org/2000/svg" width="64" height="64" viewBox="0 0 64 64" fill="none">
  <rect width="64" height="64" rx="12" fill="#3056d3"/>
  <path d="M14 20H18.5C20.9333 20 22.8 20.5333 24.1 21.6C25.4 22.6667 26.05 24.2 26.05 26.2C26.05 27.4 25.7833 28.4667 25.25 29.4C24.7167 30.3333 23.9333 31.0667 22.9 31.6C21.8667 32.1333 20.6333 32.4 19.2 32.4H16.9V40H14V20ZM18.3 30C19.8333 30 21 29.6333 21.8 28.9C22.6 28.1667 23 27.1333 23 25.8C23 24.4667 22.6167 23.4667 21.85 22.8C21.0833 22.1333 19.9333 21.8 18.4 21.8H16.9V30H18.3Z" fill="white"/>
  <path d="M28 20H36V21.8H30.9V29H35.1V30.8H30.9V38.2H36V40H28V20Z" fill="white"/>
  <path d="M40 23.5V24.9L41.5 25.8C42.2333 25 43.0333 24.3667 43.9 23.9C44.7667 23.4333 45.7 23.2 46.7 23.2C47.4333 23.2 48.0833 23.3333 48.65 23.6C49.2167 23.8667 49.6667 24.25 50 24.75C50.3333 25.25 50.5 25.8333 50.5 26.5C50.5 27.3 50.2667 28 49.8 28.6C49.3333 29.2 48.5 29.8 47.3 30.4L46.4 30.9C45.5333 31.3667 44.9 31.8 44.5 32.2C44.1 32.6 43.85 33 43.75 33.4H50.5V36H40C40.0667 34.6 40.3167 33.4333 40.75 32.5C41.1833 31.5667 42 30.7 43.2 29.9L44.9 28.9C45.7 28.4333 46.2333 28.0333 46.5 27.7C46.7667 27.3667 46.9 26.9667 46.9 26.5C46.9 26.0333 46.7333 25.6667 46.4 25.4C46.0667 25.1333 45.6333 25 45.1 25C44.5 25 43.9667 25.1333 43.5 25.4C43.0333 25.6667 42.6 26.05 42.2 26.55L40 23.5Z" fill="#32ff41"/>
</svg>